<svg width="46" height="52" viewBox="0 0 46 52" fill="none" xmlns="http://www.w3.org/2000/svg">
<path d="M26.5 47C26.5 47.4546 26.4095 47.9047 26.2336 48.3247C26.0577 48.7446 25.7999 49.1262 25.4749 49.4477C25.1499 49.7691 24.764 50.0241 24.3394 50.198C23.9148 50.372 23.4596 50.4615 23 50.4615" stroke="#7BD709" stroke-width="2.99977" stroke-linecap="round" stroke-linejoin="round"/>
<path d="M19.5 47C19.5 47.4546 19.5905 47.9047 19.7664 48.3247C19.9423 48.7446 20.2001 49.1262 20.5251 49.4477C20.8501 49.7691 21.236 50.0241 21.6606 50.198C22.0852 50.372 22.5404 50.4615 23 50.4615" stroke="#7BD709" stroke-width="2.99977" stroke-linecap="round" stroke-linejoin="round"/>
<path d="M19.5001 43.5386V47.0001" stroke="#7BD709" stroke-width="2.99977" stroke-linecap="round" stroke-linejoin="round"/>
<path d="M26.5 43.5386L26.5 47.0001" stroke="#7BD709" stroke-width="2.99977" stroke-linecap="round" stroke-linejoin="round"/>
<path d="M44 40.0771C37 43.5387 26.5 43.5387 23 43.5387" stroke="#7BD709" stroke-width="2.99977" stroke-linecap="round" stroke-linejoin="round"/>
<path d="M44 40.077C44 33.154 37 36.6155 37 19.3078C37 11.5676 30 5.46191 26.5 5.46191" stroke="#7BD709" stroke-width="2.99977" stroke-linecap="round" stroke-linejoin="round"/>
<path d="M2 40.0771C9 43.5387 19.5 43.5387 23 43.5387" stroke="#7BD709" stroke-width="2.99977" stroke-linecap="round" stroke-linejoin="round"/>
<path d="M2 40.0765C2 33.1535 9 36.615 9 19.3073C9 11.5671 16 5.46143 19.5 5.46143" stroke="#7BD709" stroke-width="2.99977" stroke-linecap="round" stroke-linejoin="round"/>
<path d="M19.5 5.46143C19.5 4.54337 19.8687 3.66291 20.5251 3.01375C21.1815 2.36458 22.0717 1.99989 23 1.99989" stroke="#7BD709" stroke-width="2.99977" stroke-linecap="round" stroke-linejoin="round"/>
<path d="M26.5 5.46143C26.5 4.54337 26.1313 3.66291 25.4749 3.01375C24.8185 2.36458 23.9283 1.99989 23 1.99989" stroke="#7BD709" stroke-width="2.99977" stroke-linecap="round" stroke-linejoin="round"/>
</svg>
