<svg width="51" height="42" viewBox="0 0 51 42" fill="none" xmlns="http://www.w3.org/2000/svg">
<path d="M1 21H49" stroke="#7BD709" stroke-width="2" stroke-linecap="round" stroke-linejoin="round"/>
<path d="M31.2632 1H20.7369C20.0389 1 19.3696 1.21071 18.876 1.58579C18.3825 1.96086 18.1053 2.46957 18.1053 3V11C18.1053 11.5304 18.3825 12.0391 18.876 12.4142C19.3696 12.7893 20.0389 13 20.7369 13H31.2632C31.9611 13 32.6305 12.7893 33.124 12.4142C33.6175 12.0391 33.8947 11.5304 33.8947 11V3C33.8947 2.46957 33.6175 1.96086 33.124 1.58579C32.6305 1.21071 31.9611 1 31.2632 1ZM15.4737 29H4.94738C4.24944 29 3.58008 29.2107 3.08657 29.5858C2.59305 29.9609 2.3158 30.4696 2.3158 31V39C2.3158 39.5304 2.59305 40.0391 3.08657 40.4142C3.58008 40.7893 4.24944 41 4.94738 41H15.4737C16.1716 41 16.841 40.7893 17.3345 40.4142C17.828 40.0391 18.1053 39.5304 18.1053 39V31C18.1053 30.4696 17.828 29.9609 17.3345 29.5858C16.841 29.2107 16.1716 29 15.4737 29ZM47.0526 29H36.5263C35.8284 29 35.159 29.2107 34.6655 29.5858C34.172 29.9609 33.8947 30.4696 33.8947 31V39C33.8947 39.5304 34.172 40.0391 34.6655 40.4142C35.159 40.7893 35.8284 41 36.5263 41H47.0526C47.7506 41 48.4199 40.7893 48.9135 40.4142C49.407 40.0391 49.6842 39.5304 49.6842 39V31C49.6842 30.4696 49.407 29.9609 48.9135 29.5858C48.4199 29.2107 47.7506 29 47.0526 29Z" stroke="#7BD709" stroke-width="2" stroke-linejoin="round"/>
<path d="M26 21V13M41.7895 29V21M10.2106 29V21" stroke="#7BD709" stroke-width="2" stroke-linecap="round" stroke-linejoin="round"/>
</svg>
