<svg width="48" height="41" viewBox="0 0 48 41" fill="none" xmlns="http://www.w3.org/2000/svg">
<path d="M36.8005 0C36.3761 0 35.9692 0.13275 35.6691 0.369046C35.3691 0.605342 35.2005 0.925827 35.2005 1.26C35.2005 1.59417 35.3691 1.91466 35.6691 2.15095C35.9692 2.38725 36.3761 2.52 36.8005 2.52H42.5378L27.2009 14.5984L18.734 7.92792C18.5854 7.81058 18.4089 7.71748 18.2145 7.65396C18.0201 7.59044 17.8117 7.55775 17.6013 7.55775C17.3908 7.55775 17.1825 7.59044 16.9881 7.65396C16.7937 7.71748 16.6171 7.81058 16.4685 7.92792L0.469201 20.5279C0.168776 20.7645 -1.00102e-08 21.0854 0 21.42C1.00102e-08 21.7546 0.168776 22.0755 0.469201 22.3121C0.769626 22.5487 1.17709 22.6816 1.60195 22.6816C2.02682 22.6816 2.43428 22.5487 2.73471 22.3121L17.6013 10.6016L26.0681 17.2721C26.2167 17.3894 26.3933 17.4825 26.5877 17.546C26.7821 17.6096 26.9904 17.6423 27.2009 17.6423C27.4113 17.6423 27.6197 17.6096 27.8141 17.546C28.0085 17.4825 28.185 17.3894 28.3336 17.2721L44.8001 4.30164V8.82C44.8001 9.15417 44.9687 9.47466 45.2687 9.71095C45.5688 9.94725 45.9757 10.08 46.4001 10.08C46.8244 10.08 47.2313 9.94725 47.5314 9.71095C47.8314 9.47466 48 9.15417 48 8.82V1.26C48 0.925827 47.8314 0.605342 47.5314 0.369046C47.2313 0.13275 46.8244 0 46.4001 0H36.8005ZM40.0003 17.64C39.576 17.64 39.1691 17.7727 38.869 18.009C38.569 18.2453 38.4004 18.5658 38.4004 18.9V39.06C38.4004 39.3942 38.569 39.7147 38.869 39.951C39.1691 40.1873 39.576 40.32 40.0003 40.32C40.4247 40.32 40.8316 40.1873 41.1317 39.951C41.4317 39.7147 41.6003 39.3942 41.6003 39.06V18.9C41.6003 18.5658 41.4317 18.2453 41.1317 18.009C40.8316 17.7727 40.4247 17.64 40.0003 17.64ZM14.4014 22.68C13.9771 22.68 13.5701 22.8127 13.2701 23.049C12.97 23.2853 12.8015 23.6058 12.8015 23.94V39.06C12.8015 39.3942 12.97 39.7147 13.2701 39.951C13.5701 40.1873 13.9771 40.32 14.4014 40.32C14.8257 40.32 15.2327 40.1873 15.5327 39.951C15.8328 39.7147 16.0013 39.3942 16.0013 39.06V23.94C16.0013 23.6058 15.8328 23.2853 15.5327 23.049C15.2327 22.8127 14.8257 22.68 14.4014 22.68ZM25.6009 28.98C25.6009 28.6458 25.7695 28.3253 26.0696 28.089C26.3696 27.8527 26.7765 27.72 27.2009 27.72C27.6252 27.72 28.0322 27.8527 28.3322 28.089C28.6322 28.3253 28.8008 28.6458 28.8008 28.98V39.06C28.8008 39.3942 28.6322 39.7147 28.3322 39.951C28.0322 40.1873 27.6252 40.32 27.2009 40.32C26.7765 40.32 26.3696 40.1873 26.0696 39.951C25.7695 39.7147 25.6009 39.3942 25.6009 39.06V28.98ZM0.00202094 31.5C0.00202094 31.1658 0.170585 30.8453 0.470631 30.609C0.770676 30.3727 1.17763 30.24 1.60195 30.24C2.02628 30.24 2.43323 30.3727 2.73328 30.609C3.03332 30.8453 3.20189 31.1658 3.20189 31.5V39.06C3.20189 39.3942 3.03332 39.7147 2.73328 39.951C2.43323 40.1873 2.02628 40.32 1.60195 40.32C1.17763 40.32 0.770676 40.1873 0.470631 39.951C0.170585 39.7147 0.00202094 39.3942 0.00202094 39.06V31.5Z" fill="#7BD709"/>
</svg>
